<svg xmlns="http://www.w3.org/2000/svg" xmlns:xlink="http://www.w3.org/1999/xlink" version="1.1" preserveAspectRatio="xMidYMid meet" viewBox="30 30 505 505" width="32" height="100%"><defs><path d="M313.72 162.65C313.72 194.56 289.25 220.47 259.11 220.47C228.98 220.47 204.51 194.56 204.51 162.65C204.51 130.74 228.98 104.84 259.11 104.84C289.25 104.84 313.72 130.74 313.72 162.65Z" id="a16NjbOPe5" /><path d="M262.56 386.72L262.56 223.6" id="amwtZ9SnJ" /><path d="M221.5 498.98L262.56 383.35L221.5 498.98Z" id="i2BS6vmg8j" /><path d="" id="edU6khuNe" /><path d="M306.06 498.98L262.56 383.35" id="kyNzBMrt4" /><path d="M248.68 330.22L191.51 311.47L256.23 255.22" id="beTq7jHgd" /><path d="M384.58 184.9L355.89 272.41L262.56 255.22" id="eXo1WlAaG" /><path d="M263.78 245.84L245.66 264.59" id="c95uwVM0mt" /><path d="M494.27 279.44C494.27 405.78 391.42 508.35 264.75 508.35C138.07 508.35 35.23 405.78 35.23 279.44C35.23 153.1 138.07 50.52 264.75 50.52C391.42 50.52 494.27 153.1 494.27 279.44Z" id="adLQo3h3F" /></defs><g><g><g><use xlink:href="#a16NjbOPe5" opacity="1" fill="#87a33a" fill-opacity="0" /><g><use xlink:href="#a16NjbOPe5" opacity="1" fill-opacity="0" stroke="#ffffff" stroke-width="25" stroke-opacity="1" /></g></g><g><g><use xlink:href="#amwtZ9SnJ" opacity="1" fill-opacity="0" stroke="#ffffff" stroke-width="25" stroke-opacity="1" /></g></g><g><g><use xlink:href="#i2BS6vmg8j" opacity="1" fill-opacity="0" stroke="#ffffff" stroke-width="25" stroke-opacity="1" /></g></g><g><g><use xlink:href="#edU6khuNe" opacity="1" fill-opacity="0" stroke="#ffffff" stroke-width="25" stroke-opacity="1" /></g></g><g><g><use xlink:href="#kyNzBMrt4" opacity="1" fill-opacity="0" stroke="#ffffff" stroke-width="25" stroke-opacity="1" /></g></g><g><g><use xlink:href="#beTq7jHgd" opacity="1" fill-opacity="0" stroke="#ffffff" stroke-width="25" stroke-opacity="1" /></g></g><g><g><use xlink:href="#eXo1WlAaG" opacity="1" fill-opacity="0" stroke="#ffffff" stroke-width="25" stroke-opacity="1" /></g></g><g><g><use xlink:href="#c95uwVM0mt" opacity="1" fill-opacity="0" stroke="#ffffff" stroke-width="25" stroke-opacity="1" /></g></g><g><use xlink:href="#adLQo3h3F" opacity="1" fill="#87a33a" fill-opacity="0" /><g><use xlink:href="#adLQo3h3F" opacity="1" fill-opacity="0" stroke="#ffffff" stroke-width="25" stroke-opacity="1" /></g></g></g></g></svg>